<svg width="48" height="48" viewBox="0 0 48 48" fill="none" xmlns="http://www.w3.org/2000/svg">
<g clip-path="url(#clip0_1_630)">
<path d="M21.5 19.5V22.24H27.5V19.5H21.5ZM21.5 25.76V28.5H28.5V25.76H21.5ZM21.5 25.76V28.5H28.5V25.76H21.5ZM21.5 19.5V22.24H27.5V19.5H21.5ZM21.5 19.5V22.24H27.5V19.5H21.5ZM21.5 25.76V28.5H28.5V25.76H21.5ZM21.5 25.76V28.5H28.5V25.76H21.5ZM27.5 19.5H21.5V22.24H27.5V19.5ZM24 4C12.9543 4 4 12.9543 4 24C4 35.0457 12.9543 44 24 44C35.0457 44 44 35.0457 44 24C44 18.6957 41.8929 13.6086 38.1421 9.85786C34.3914 6.10714 29.3043 4 24 4ZM32 28C32 30.2091 30.2091 32 28 32H26V35C26 35.5523 25.5523 36 25 36H23C22.4477 36 22 35.5523 22 35V32H17C16.4477 32 16 31.5523 16 31V29.5C16 28.9477 16.4477 28.5 17 28.5H17.5C17.7761 28.5 18 28.2761 18 28V20C18 19.7239 17.7761 19.5 17.5 19.5H17C16.4477 19.5 16 19.0523 16 18.5V17C16 16.4477 16.4477 16 17 16H22V13C22 12.4477 22.4477 12 23 12H25C25.5523 12 26 12.4477 26 13V16H27C29.2091 16 31 17.7909 31 20V21.76C30.9963 22.2895 30.8875 22.8129 30.68 23.3C31.5128 24.0516 31.9917 25.1183 32 26.24V28ZM21.5 28.5H28.5V25.76H21.5V28.5ZM27.5 19.5H21.5V22.24H27.5V19.5ZM21.5 19.5V22.24H27.5V19.5H21.5ZM21.5 25.76V28.5H28.5V25.76H21.5ZM21.5 25.76V28.5H28.5V25.76H21.5ZM21.5 19.5V22.24H27.5V19.5H21.5Z" fill="#333333"/>
</g>
<defs>
<clipPath id="clip0_1_630">
<rect width="48" height="48" fill="white"/>
</clipPath>
</defs>
</svg>
