<svg width="18" height="19" viewBox="0 0 18 19" fill="none" xmlns="http://www.w3.org/2000/svg">
<path fill-rule="evenodd" clip-rule="evenodd" d="M2.69995 5.21961C2.69995 4.72255 3.10289 4.31961 3.59995 4.31961H14.4C14.897 4.31961 15.3 4.72255 15.3 5.21961C15.3 5.71667 14.897 6.11961 14.4 6.11961H3.59995C3.10289 6.11961 2.69995 5.71667 2.69995 5.21961Z" fill="white"/>
<path fill-rule="evenodd" clip-rule="evenodd" d="M2.69995 9.71961C2.69995 9.22255 3.10289 8.81961 3.59995 8.81961H14.4C14.897 8.81961 15.3 9.22255 15.3 9.71961C15.3 10.2167 14.897 10.6196 14.4 10.6196H3.59995C3.10289 10.6196 2.69995 10.2167 2.69995 9.71961Z" fill="white"/>
<path fill-rule="evenodd" clip-rule="evenodd" d="M2.69995 14.2196C2.69995 13.7226 3.10289 13.3196 3.59995 13.3196H14.4C14.897 13.3196 15.3 13.7226 15.3 14.2196C15.3 14.7167 14.897 15.1196 14.4 15.1196H3.59995C3.10289 15.1196 2.69995 14.7167 2.69995 14.2196Z" fill="white"/>
</svg>
