<svg width="20" height="20" viewBox="0 0 20 20" fill="none" xmlns="http://www.w3.org/2000/svg">
<g filter="url(#filter0_d_29_284)">
<path fill-rule="evenodd" clip-rule="evenodd" d="M8.20005 4.09999C6.21182 4.09999 4.60005 5.71176 4.60005 7.69999C4.60005 9.68821 6.21182 11.3 8.20005 11.3C10.1883 11.3 11.8 9.68821 11.8 7.69999C11.8 5.71176 10.1883 4.09999 8.20005 4.09999ZM2.80005 7.69999C2.80005 4.71765 5.21771 2.29999 8.20005 2.29999C11.1824 2.29999 13.6 4.71765 13.6 7.69999C13.6 8.86624 13.2303 9.94613 12.6017 10.8289L16.9364 15.1636C17.2879 15.5151 17.2879 16.0849 16.9364 16.4364C16.585 16.7879 16.0151 16.7879 15.6637 16.4364L11.3289 12.1017C10.4462 12.7303 9.3663 13.1 8.20005 13.1C5.21771 13.1 2.80005 10.6823 2.80005 7.69999Z" fill="white"/>
</g>
<defs>
<filter id="filter0_d_29_284" x="-1" y="-0.5" width="22" height="22" filterUnits="userSpaceOnUse" color-interpolation-filters="sRGB">
<feFlood flood-opacity="0" result="BackgroundImageFix"/>
<feColorMatrix in="SourceAlpha" type="matrix" values="0 0 0 0 0 0 0 0 0 0 0 0 0 0 0 0 0 0 127 0" result="hardAlpha"/>
<feOffset dy="1"/>
<feGaussianBlur stdDeviation="1"/>
<feColorMatrix type="matrix" values="0 0 0 0 0.0627451 0 0 0 0 0.0941176 0 0 0 0 0.156863 0 0 0 0.05 0"/>
<feBlend mode="normal" in2="BackgroundImageFix" result="effect1_dropShadow_29_284"/>
<feBlend mode="normal" in="SourceGraphic" in2="effect1_dropShadow_29_284" result="shape"/>
</filter>
</defs>
</svg>
