<svg width="120" height="120" viewBox="0 0 120 120" fill="none" xmlns="http://www.w3.org/2000/svg">
<path fill-rule="evenodd" clip-rule="evenodd" d="M119.999 54.7732C119.977 42.8534 115.384 31.2641 106.914 21.7586C98.445 12.2531 86.5604 5.34872 73.0588 2.08999C59.5571 -1.16875 45.1729 -0.604504 32.0825 3.69734C18.9921 7.99918 7.90768 15.8045 0.50625 25.9326L7.21502 31.6297C9.08783 28.8068 11.2992 26.1559 13.8138 23.7191L13.7368 23.6537L16.0904 21.655C23.8241 15.0494 33.6929 10.5421 44.4461 8.70442C55.1994 6.86672 66.3531 7.78132 76.4936 11.3323C86.6342 14.8833 95.3051 20.9109 101.408 28.6511C107.51 36.3913 110.769 45.4957 110.772 54.8105V54.8108C110.772 55.7447 110.772 56.6785 110.673 57.6124V58.0047V58.2943V58.8733C110.673 59.0601 110.673 59.2095 110.618 59.3776L110.519 60.1341C110.519 60.2836 110.519 60.4423 110.453 60.6105C110.409 60.7238 110.394 60.8838 110.379 61.0475L110.379 61.0477C110.372 61.1268 110.365 61.2068 110.354 61.2829L110.288 61.6565C110.288 61.8059 110.251 61.969 110.213 62.133L110.213 62.1332C110.197 62.2048 110.181 62.2766 110.167 62.3476C110.152 62.4277 110.141 62.4836 110.132 62.5277C110.128 62.5464 110.125 62.563 110.121 62.5785L110.121 62.5787C110.11 62.633 110.101 62.673 110.09 62.7398C110.084 62.7792 110.081 62.8159 110.078 62.8515C110.073 62.9341 110.067 63.0098 110.013 63.0948C109.962 63.1762 109.95 63.2914 109.937 63.4092C109.931 63.4668 109.925 63.5252 109.914 63.5804C109.898 63.6645 109.879 63.7416 109.859 63.8186C109.84 63.8957 109.821 63.9727 109.804 64.0568L109.672 64.6078C109.353 65.8873 108.957 67.1855 108.573 68.4277C108.551 68.4868 108.53 68.546 108.509 68.6052C108.467 68.7235 108.426 68.8418 108.375 68.96C108.326 69.0723 108.299 69.1547 108.272 69.2379C108.257 69.2862 108.241 69.3348 108.221 69.3897C107.902 70.2116 107.55 71.0427 107.187 71.8459L107.022 72.1822L106.703 72.6305C106.626 72.7799 106.538 72.9574 106.461 73.1255L106.241 73.5458V73.6111L105.944 74.1902C105.867 74.3396 105.79 74.4797 105.702 74.6198C104.294 77.1978 102.612 79.6612 100.676 81.9794L100.368 82.3437L99.6972 83.1095C99.6757 83.1338 99.6536 83.1591 99.6311 83.1849L99.6309 83.1851C99.5497 83.2781 99.4618 83.3788 99.3672 83.4737L98.6413 84.2676L98.2014 84.7159L97.7945 85.1362L97.3436 85.5845C97.285 85.6405 97.2276 85.6965 97.1702 85.7525C97.0553 85.8646 96.9404 85.9767 96.8157 86.0888L103.326 91.6179C114.102 81.5327 120.049 68.391 119.999 54.7732ZM106.351 96.1664C108.862 93.7272 111.073 91.0766 112.95 88.2557L119.461 94.065C114.733 100.539 108.468 106.105 101.067 110.408C93.665 114.712 85.2889 117.659 76.4719 119.062C67.6549 120.465 58.5904 120.292 49.8563 118.556C41.1222 116.819 32.9099 113.556 25.7429 108.975C18.5759 104.394 12.6114 98.5947 8.22944 91.9476C3.84751 85.3006 1.1443 77.9513 0.292098 70.368C-0.560108 62.7848 0.457385 55.1339 3.27973 47.903C6.10207 40.6722 10.6674 34.0199 16.6846 28.3703L23.1954 33.8994L22.6675 34.4037L22.6671 34.404C22.5133 34.544 22.3595 34.684 22.2166 34.8426C22.1317 34.9369 22.0429 35.0246 21.9548 35.1117C21.8946 35.1711 21.8347 35.2303 21.7767 35.2909C21.7328 35.3368 21.6889 35.3836 21.6446 35.4307L21.6445 35.4309C21.5447 35.5371 21.4434 35.6451 21.3368 35.7486L20.6109 36.5331C20.4899 36.6545 20.3799 36.7853 20.281 36.9067L19.6211 37.6632L19.3021 38.0274C17.3689 40.3469 15.6867 42.8102 14.2761 45.387L14.0451 45.8166C13.9351 46.0127 13.8362 46.2088 13.7372 46.4049L13.7372 46.405V46.4704C13.7137 46.513 13.6852 46.5557 13.6569 46.598C13.5921 46.6949 13.5282 46.7904 13.5282 46.8813L13.2752 47.3857C13.2203 47.5164 13.1543 47.6565 13.0993 47.7686C13.0832 47.8013 13.0635 47.8348 13.0435 47.8686C12.995 47.9507 12.9453 48.0348 12.9453 48.1142C12.5714 48.9174 12.2194 49.7486 11.9115 50.5611C11.8715 50.6516 11.8437 50.7284 11.8133 50.8122C11.7935 50.8668 11.7726 50.9245 11.7465 50.9908C11.7271 51.0402 11.7039 51.0897 11.6808 51.1389C11.6253 51.257 11.5706 51.3737 11.5706 51.4858C11.1746 52.7373 10.7787 54.0261 10.4708 55.3057C10.4158 55.4925 10.3608 55.7073 10.3278 55.866C10.3124 55.9398 10.2947 56.0096 10.2768 56.0801C10.2562 56.1611 10.2354 56.2431 10.2178 56.333C10.2069 56.3887 10.2008 56.4495 10.1947 56.51C10.1824 56.6322 10.1703 56.7531 10.1188 56.828C10.0803 56.8841 10.0803 56.9378 10.0803 56.9938C10.0803 57.0498 10.0803 57.1082 10.0418 57.1736C9.99556 57.2522 9.99299 57.297 9.98876 57.371C9.98594 57.4201 9.9824 57.482 9.96485 57.5752C9.95111 57.6481 9.93414 57.721 9.91732 57.7934C9.88027 57.9527 9.84387 58.1092 9.84387 58.257L9.77788 58.6399C9.76666 58.7161 9.75163 58.7934 9.73668 58.8703C9.70764 59.0196 9.6789 59.1674 9.6789 59.303C9.6349 59.4711 9.61291 59.6299 9.61291 59.7793L9.51392 60.5358V61.0402L9.44794 61.6192C9.4534 61.7032 9.4534 61.7874 9.44794 61.8714V62.2637C9.34896 63.1976 9.34896 64.1315 9.34896 65.0654V65.0656C9.33787 74.389 12.59 83.5049 18.6923 91.2555C24.7947 99.0061 33.4718 105.042 43.6218 108.596C53.7718 112.15 64.9367 113.062 75.6984 111.216C86.4602 109.371 96.3332 104.851 104.064 98.2304L106.417 96.2224L106.351 96.1664ZM46.0852 103.317C40.1744 101.233 34.8092 98.174 30.3001 94.3171L30.1461 94.8775C25.6152 91.0286 22.0229 86.4584 19.5751 81.4287C17.1273 76.399 15.8721 71.0087 15.8813 65.5664C15.8905 60.1241 17.1639 54.7368 19.6287 49.7131C22.0935 44.6894 25.7012 40.1281 30.2451 36.2903C33.7713 33.3209 37.8054 30.8208 42.2109 28.8746L49.1177 34.7399C44.5167 36.4163 40.3272 38.8114 36.7669 41.8006C29.5075 47.9097 25.3177 56.1698 25.0771 64.8464C24.8366 73.523 28.564 81.9414 35.4767 88.3339C42.3895 94.7264 51.9499 98.5958 62.1507 99.1298C72.3515 99.6638 82.3992 96.8208 90.1842 91.1977L96.695 96.7267L96.431 96.9228L95.5622 97.5486L95.1003 97.8755L94.6383 98.1837L94.5284 98.249L94.2534 98.4359L93.8025 98.7347L93.3846 98.9962L93.1426 99.1457L92.8017 99.3511H92.7357L92.2848 99.622C91.7349 99.9489 91.229 100.229 90.734 100.5L89.6342 101.079L88.9634 101.415L88.6554 101.565C87.6766 102.032 86.6648 102.48 85.642 102.891L85.1471 103.096H85.0481L84.7181 103.218L84.1023 103.451L83.4204 103.703L82.7275 103.937L82.3096 104.077C82.1336 104.142 81.9467 104.198 81.7487 104.254L81.3638 104.385H81.2758L80.9568 104.488L79.7361 104.833L79.3401 104.936L78.7902 105.086L78.4273 105.179H78.3613L78.0754 105.254L77.7014 105.338L77.2285 105.45L76.6346 105.581H76.4147L75.5568 105.749L74.2591 105.982L73.7642 106.057H73.7092L73.3242 106.113H73.2692L72.7853 106.178C72.2134 106.262 71.6195 106.337 71.0147 106.402H70.5307H70.2888H69.9149H69.354L68.6941 106.459H68.5291H68.1992H67.4843H66.5935H65.9666H64.7348C58.3348 106.469 51.9959 105.401 46.0852 103.317ZM77.7891 91.5713L70.8823 85.706C75.5775 83.918 79.8203 81.3743 83.3761 78.2157C90.6354 72.1065 94.8253 63.8465 95.0658 55.1699C95.3064 46.4933 91.579 38.0749 84.6662 31.6824C77.7534 25.2899 68.193 21.4204 57.9922 20.8864C47.7915 20.3524 37.7438 23.1955 29.9588 28.8186L23.448 23.2802L23.7119 23.0841L24.5808 22.4584L25.0867 22.1128L25.5486 21.7953L25.6586 21.7299L25.9335 21.5431L26.3845 21.2535L26.8024 20.9921L27.0333 20.8426L27.3853 20.6278L27.4733 20.5718L27.8912 20.3289C28.4411 20.0114 28.947 19.7219 29.4419 19.4604L29.8928 19.2175L30.5967 18.8533L31.2346 18.5357L31.5315 18.3863C32.5103 17.9193 33.5222 17.471 34.545 17.0601L35.0509 16.8546H35.1389L35.4688 16.7332L36.0847 16.4997L36.7666 16.2569L37.4594 16.014L37.8774 15.8739L38.4493 15.6965L38.8232 15.5751H38.9222L39.2301 15.4817L40.4509 15.1268L40.8468 15.024L41.3967 14.8839L41.7596 14.7906H41.8256L42.1116 14.7158L42.4855 14.6318L42.9584 14.5197L43.5523 14.389H43.7723L44.6301 14.2115L45.9389 13.978L46.4228 13.9033H46.4998L46.8627 13.8473H46.9177L47.4016 13.7725C47.9845 13.6885 48.5674 13.6231 49.1723 13.5577L49.6452 13.5017H49.7112H49.8982H50.2721L50.833 13.455L51.4929 13.455H51.6578H51.9878H52.7026H53.5935H54.1984H55.4192C66.3331 13.4609 76.9286 16.5784 85.5073 22.3079C94.0859 28.0374 100.151 36.047 102.73 45.0527C105.309 54.0584 104.252 63.5387 99.7299 71.9737C95.2075 80.4087 87.481 87.3101 77.7891 91.5713Z" fill="#4F46E5"/>
</svg>
